<?xml version="1.0" encoding="UTF-8"?>
<!DOCTYPE svg PUBLIC "-//W3C//DTD SVG 1.1//EN" "http://www.w3.org/Graphics/SVG/1.1/DTD/svg11.dtd">
<!-- Creator: CorelDRAW 2019 (64-Bit) -->
<?xml-stylesheet href="paper.css" type="text/css"?>
<svg xmlns="http://www.w3.org/2000/svg" xml:space="preserve" width="68.7502mm" height="99.9791mm" version="1.1" style="shape-rendering:geometricPrecision; text-rendering:geometricPrecision; image-rendering:optimizeQuality; fill-rule:evenodd; clip-rule:evenodd"
viewBox="0 0 6875.02 9997.91"
 xmlns:xlink="http://www.w3.org/1999/xlink"
 xmlns:xodm="http://www.corel.com/coreldraw/odm/2003">
 <g id="Warstwa_x0020_1">
  <metadata id="CorelCorpID_0Corel-Layer"/>
  <g id="_2508002836528">
   <path class="fil0" d="M2539.07 693.52c-461.54,-221.45 -1017.21,42.52 -1211.56,507.19 -136,325.14 -77.5,921 -77.5,1367.82 -577.85,-277.27 -1250.01,263.79 -1250.01,820.31l0 3203.12c0,983.99 466.61,1858.71 966.63,2353.7 1411.46,1397.23 3528.69,1402.14 4922.41,19.71 594.23,-589.44 985.98,-1477.39 985.98,-2373.41l0 -2578.12c0,-354.09 -267.37,-682.23 -557.85,-809.34 -503.11,-220.19 -1043.15,44.25 -1224.15,472.67 -144.62,342.35 -93.01,891.3 -93.01,1352.29 -1523.88,126.82 -2156.56,2187.5 -1757.81,2187.5 736.8,0 374.86,75.87 608.67,-602.27 186,-539.46 789.99,-999.29 1461.65,-999.29l312.49 0 0 -1562.5c0,-455.18 624.99,-344.7 624.99,-78.12l0 2773.43c0,1329.99 -1281.03,2644.88 -2812.49,2644.88 -1531.46,0 -2812.49,-1314.89 -2812.49,-2644.88l0 -3398.43c0,-266.58 624.99,-377.06 624.99,78.12l0 1875.01 625 0 0 -3828.14c0,-266.56 625,-377.04 625,78.12l0 3125 624.99 0 0 -3749.99c0,-419.31 625.02,-419.31 625.02,0l0 3749.99 624.99 0 0 -3125c0,-419.29 625,-419.29 625,0l0 1250.01 625 0 0 -1210.93c0,-731.77 -734.3,-1164.63 -1289.06,-898.45 -215.43,-924.69 -1581.45,-924.69 -1796.88,0z"/>
   <polygon class="fil0" points="4687.5,7490.4 5312.52,7490.4 5312.52,6865.41 4687.5,6865.41 "/>
  </g>
 </g>
</svg>
