<?xml version="1.0" encoding="UTF-8"?>
<!DOCTYPE svg PUBLIC "-//W3C//DTD SVG 1.1//EN" "http://www.w3.org/Graphics/SVG/1.1/DTD/svg11.dtd">
<!-- Creator: CorelDRAW 2019 (64-Bit) -->
<?xml-stylesheet href="rock.css" type="text/css"?>
<svg xmlns="http://www.w3.org/2000/svg" xml:space="preserve" width="62.5mm" height="68.7156mm" version="1.1" style="shape-rendering:geometricPrecision; text-rendering:geometricPrecision; image-rendering:optimizeQuality; fill-rule:evenodd; clip-rule:evenodd"
viewBox="0 0 6250 6871.56"
 xmlns:xlink="http://www.w3.org/1999/xlink"
 xmlns:xodm="http://www.corel.com/coreldraw/odm/2003">
 <g id="Warstwa_x0020_1">
  <metadata id="CorelCorpID_0Corel-Layer"/>
  <g id="_2508002835120">
   <path class="fil0" d="M1835.93 2070.32c0,-1035.4 -139.36,-1445.32 429.7,-1445.32 350.86,0 234.37,1068.01 234.37,1523.44 0,424.07 -664.07,534.23 -664.07,-78.12zm1465.67 -2070.32l187.77 0c197.24,22.35 390.25,111.91 573.13,234.37 32.72,-28.43 64.31,-56.74 108.49,-86.83 121.3,-82.62 272.51,-147.54 438.39,-147.54 807.48,0 1015.62,548.78 1015.62,1249.99l625 0 0 2265.64c0,2811 -2763.4,4213.82 -4906.81,2797.45 -225.46,-148.98 -430.86,-327.67 -595.97,-536.87 -664.67,-842.19 -747.22,-1294.78 -747.22,-2377.78l585.94 0 0 156.26c0,1047.41 481.51,2013.53 1418.57,2448.61 996.85,462.86 2141.28,276.74 2908.45,-504.4 335.4,-341.5 712.04,-1009.9 712.04,-1670.77l0 -1953.12 -2226.57 0c-404.6,0 -384.02,624.99 39.08,624.99l1249.99 0 0 625c-731.83,0 -1253.52,392.06 -1485.28,1014.72 -228.84,614.77 224.23,547.78 -702.22,547.78 0,-451.94 61.19,-632.01 233.92,-977.02 170.72,-340.98 395.7,-534.62 430.14,-663.6 -221.41,-18.44 -220.94,-110.95 -390.62,-156.25 -151.83,101.66 -371.57,238.59 -617.28,223.67 -223.92,-13.6 -487.64,-104.41 -593.66,-262.73 -163.31,109.35 -218.99,187.5 -464.31,241.49 -165.04,36.33 -371.41,16.96 -540.74,-56.75 -411.56,-179.13 -528.81,-474.38 -557.45,-823.6l0 -728.33c0,-607.92 720.7,-1053.97 1289.07,-781.25 34.35,-412.81 655.64,-1049.85 1523.43,-468.76 32.72,-28.43 64.31,-56.74 108.48,-86.83 126.86,-86.4 254.23,-132.66 380.62,-147.54zm-2715.66 2070.32c0,-411.5 -80.51,-820.33 351.56,-820.33 396.24,0 312.49,468.19 312.49,898.45 0,424.07 -664.05,534.23 -664.05,-78.12zm3789.06 -1171.88c0,-391.99 625.01,-372.94 625.01,39.06l0 312.49 -625.01 0 0 -351.55zm-1289.06 390.63c0,-551.63 27,-664.07 429.69,-664.07 276.37,0 234.37,465.86 234.37,624.99l-664.06 39.08z"/>
   <path class="fil0" d="M4023.44 4492.19c0,620.61 -123.64,507.82 664.06,507.82l0 -625.01c-444.49,0 -664.06,-62.99 -664.06,117.19z"/>
  </g>
 </g>
</svg>
