<?xml version="1.0" encoding="UTF-8"?>
<!DOCTYPE svg PUBLIC "-//W3C//DTD SVG 1.1//EN" "http://www.w3.org/Graphics/SVG/1.1/DTD/svg11.dtd">
<!-- Creator: CorelDRAW 2019 (64-Bit) -->
<?xml-stylesheet href="scissors.css" type="text/css"?>
<svg xmlns="http://www.w3.org/2000/svg" xml:space="preserve" width="62.6398mm" height="99.8648mm" version="1.1" style="shape-rendering:geometricPrecision; text-rendering:geometricPrecision; image-rendering:optimizeQuality; fill-rule:evenodd; clip-rule:evenodd"
viewBox="0 0 6263.98 9986.48"
 xmlns:xlink="http://www.w3.org/1999/xlink"
 xmlns:xodm="http://www.corel.com/coreldraw/odm/2003">
 <g id="Warstwa_x0020_1">
  <metadata id="CorelCorpID_0Corel-Layer"/>
  <g id="_2508804413536">
   <path class="fil0" d="M638.98 5298.98c0,-469.44 -96.03,-937.5 312.5,-937.5 424.05,0 312.51,449.65 312.51,1015.62 0,291.69 -625.01,365.03 -625.01,-78.12zm2661.32 4687.5l-268.7 0c-615.86,-26.38 -1232.41,-233.52 -1762.49,-630.13 -1493.61,-1117.57 -1255.13,-2739.72 -1255.13,-4526.12 0,-959.72 809.34,-1245.81 1289.07,-1015.62 108.22,-225.56 116.32,-333.81 327.31,-493 447.37,-337.57 990.97,-256.11 1337.29,195.57 200.63,261.68 171.33,489.2 171.33,922.43 74.38,-35.69 208.54,-69.48 312.5,-78.13 -56.25,-117.24 -88.86,-333.59 -133.68,-491.33 -49.51,-174.34 -91.34,-337.41 -131.42,-493.56l-524.16 -1975.85c-109.3,-398.53 -126.08,-789.26 -460.74,-789.26 -520.03,0 -222.83,695.94 -117.48,1094.03 64.27,242.86 136.59,488.6 195.61,741.91 -213.4,17.75 -360.75,112.16 -585.94,117.18 -40.67,-84.76 -95.58,-304.56 -125.52,-421.36 -84.89,-331.13 -314.57,-1056.54 -279.48,-1308.98 81.71,-588.06 633.91,-1004.46 1260.44,-765.76 569.45,216.92 586.12,803.71 762.61,1424.93l452.26 1735.24 101.23 -328.46c35.87,-145.8 60.79,-208.46 94.37,-335.31 146.2,-552.4 363.26,-1478.36 520.52,-1940.43 343.02,-1007.86 1783.88,-672.53 1783.88,221.38 0,451.46 -98.77,598.79 -203.64,1007.3l-437.85 1671.53c-45.65,160.71 -73.82,260.45 -116.11,430.76 -37.07,149.28 -90.42,269.53 -101.77,406.04l859.37 0 0 2656.25c0,871.46 -482.93,1633.06 -927.52,2080.28 -551.77,555.05 -1283.95,856.51 -2036.16,888.47zm-161.32 -4687.5c0,-153.75 127.41,-312.49 312.5,-312.49l2226.56 0c0,1818.29 251.35,3136.45 -1310.56,4080.05 -661.41,399.6 -1664.03,391.79 -2349.27,48.52 -750.47,-375.93 -1379.23,-1247.11 -1379.23,-2214.52l0 -703.12c354.11,7.88 389.2,171.84 937.5,-195.31 323.5,171.16 509,340.05 983.43,163.12 175.23,-65.35 140.91,-78.98 266.56,-163.12 140.4,74.28 221.15,155.82 390.63,195.31 -121.89,182.04 -299.28,342.83 -443.02,611.67 -191.03,357.34 -221.04,612.38 -221.04,1028.95l585.94 0c0,-901.1 692.83,-1601.56 1601.56,-1601.56 0,-774.72 161.48,-626.4 -898.46,-624.98 -231.23,0.31 -703.1,90.4 -703.1,-312.52zm-859.37 312.5c-538.54,0 -390.63,-403.29 -390.63,-1484.38 0,-550.71 664.06,-564.66 664.06,117.2 0,371.15 112.71,1367.18 -273.43,1367.18zm2499.99 -1250l-664.06 0 772.93 -2938.02c84.15,-327.52 144.72,-811.98 438.01,-811.98 540.93,0 255.91,656.63 226.04,772.92l-772.92 2977.08z"/>
   <polygon class="fil0" points="4076.48,8111.47 4740.54,8111.47 4740.54,7525.54 4076.48,7525.54 "/>
  </g>
 </g>
</svg>
